<svg width="64" height="64" viewBox="0 0 64 64" fill="none" xmlns="http://www.w3.org/2000/svg" role="img" aria-label="Savings category icon">
  <defs>
    <linearGradient id="chip" x1="18" y1="12" x2="48" y2="54" gradientUnits="userSpaceOnUse">
      <stop stop-color="#FFFFFF"/>
      <stop offset="1" stop-color="#FFF9EA"/>
    </linearGradient>
    <linearGradient id="gold" x1="18" y1="16" x2="48" y2="52" gradientUnits="userSpaceOnUse">
      <stop stop-color="#F5C84B"/>
      <stop offset="1" stop-color="#C99500"/>
    </linearGradient>
    <filter id="softShadow" x="6" y="6" width="52" height="52" filterUnits="userSpaceOnUse" color-interpolation-filters="sRGB">
      <feDropShadow dx="0" dy="4" stdDeviation="4" flood-color="#D5A100" flood-opacity="0.18"/>
    </filter>
  </defs>
  <circle cx="32" cy="32" r="25" fill="url(#chip)" stroke="#F3D77A" stroke-width="1" filter="url(#softShadow)"/>
  <g stroke="url(#gold)" stroke-width="2.7" stroke-linecap="round" stroke-linejoin="round">
    <path d="M21 36C21 30.5 26.2 27 32.5 27H38C42.5 27 46 30.2 46 34.5C46 39.5 42 43 36 43H28C24 43 21 40.2 21 36Z"/>
    <path d="M28 27L26 22H34L32.5 27"/>
    <path d="M44 32L48 29V36"/>
    <path d="M29 43V47"/>
    <path d="M39 43V47"/>
    <path d="M36 32H36.1"/>
  </g>
</svg>
