<svg width="64" height="64" viewBox="0 0 64 64" fill="none" xmlns="http://www.w3.org/2000/svg" role="img" aria-label="Wallet category icon">
  <defs>
    <linearGradient id="chip" x1="18" y1="12" x2="48" y2="54" gradientUnits="userSpaceOnUse">
      <stop stop-color="#FFFFFF"/>
      <stop offset="1" stop-color="#FFF9EA"/>
    </linearGradient>
    <linearGradient id="gold" x1="18" y1="16" x2="48" y2="52" gradientUnits="userSpaceOnUse">
      <stop stop-color="#F5C84B"/>
      <stop offset="1" stop-color="#C99500"/>
    </linearGradient>
    <filter id="softShadow" x="6" y="6" width="52" height="52" filterUnits="userSpaceOnUse" color-interpolation-filters="sRGB">
      <feDropShadow dx="0" dy="4" stdDeviation="4" flood-color="#D5A100" flood-opacity="0.18"/>
    </filter>
  </defs>
  <circle cx="32" cy="32" r="25" fill="url(#chip)" stroke="#F3D77A" stroke-width="1" filter="url(#softShadow)"/>
  <g stroke="url(#gold)" stroke-width="2.7" stroke-linecap="round" stroke-linejoin="round">
    <path d="M20 25.5H43C45.2 25.5 47 27.3 47 29.5V43C47 45.2 45.2 47 43 47H21C18.8 47 17 45.2 17 43V29.5C17 27.3 18.8 25.5 21 25.5Z"/>
    <path d="M23 25.5L29 20.5H43"/>
    <path d="M39 34H47V40H39C37.3 40 36 38.7 36 37C36 35.3 37.3 34 39 34Z"/>
    <path d="M40.5 37H41"/>
  </g>
</svg>
